<svg width="36" height="36" viewBox="0 0 36 36" fill="none" xmlns="http://www.w3.org/2000/svg">
<path d="M3.176 0H32.824C33.6663 0 34.4742 0.334613 35.0698 0.930229C35.6654 1.52584 36 2.33367 36 3.176V32.824C36 33.6663 35.6654 34.4742 35.0698 35.0698C34.4742 35.6654 33.6663 36 32.824 36H3.176C2.33367 36 1.52584 35.6654 0.930229 35.0698C0.334613 34.4742 0 33.6663 0 32.824L0 3.176C0 2.33367 0.334613 1.52584 0.930229 0.930229C1.52584 0.334613 2.33367 0 3.176 0Z" fill="#FF5D55"/>
<path d="M27.183 11.4081C25.9532 10.6758 24.4829 10.4617 23.0953 10.8129C21.7078 11.1641 20.5164 12.0519 19.783 13.2811C19.783 13.2901 19.774 13.2901 19.774 13.2991C19.6548 13.5093 19.6232 13.7582 19.6863 13.9915C19.7494 14.2249 19.902 14.4239 20.111 14.5455C20.32 14.667 20.5684 14.7012 20.8025 14.6407C21.0365 14.5801 21.2372 14.4297 21.361 14.2221C21.5277 13.9373 21.736 13.6791 21.979 13.4561C22.4919 12.9725 23.1366 12.6518 23.8317 12.5346C24.5268 12.4175 25.241 12.509 25.884 12.7978C26.5271 13.0866 27.0701 13.5595 27.4443 14.1569C27.8185 14.7542 28.0072 15.4491 27.9865 16.1537C27.9658 16.8583 27.7367 17.5409 27.328 18.1153C26.9193 18.6896 26.3496 19.1299 25.6907 19.3804C25.0318 19.6309 24.3134 19.6804 23.6264 19.5226C22.9394 19.3649 22.3146 19.0069 21.831 18.4941L15.907 12.4771C14.7242 11.3268 13.1458 10.673 11.496 10.6501C10.0657 10.65 8.6939 11.2175 7.68152 12.2278C6.66914 13.2381 6.09892 14.6088 6.09601 16.0391C6.15723 17.0516 6.48536 18.0299 7.04709 18.8746C7.60881 19.7193 8.38409 20.4002 9.29419 20.8483C10.2043 21.2963 11.2168 21.4955 12.2288 21.4255C13.2407 21.3556 14.2162 21.019 15.056 20.4501V22.2031C15.056 24.7961 13.976 25.9961 11.651 25.9961C10.8813 25.9259 10.1429 25.6579 9.50739 25.2181C8.87187 24.7783 8.36087 24.1816 8.02402 23.4861C7.96584 23.3806 7.88744 23.2876 7.79333 23.2125C7.69923 23.1373 7.59126 23.0814 7.47556 23.048C7.24189 22.9805 6.99098 23.0086 6.77802 23.126C6.56505 23.2435 6.40745 23.4408 6.33994 23.6745C6.27242 23.9082 6.30051 24.1591 6.418 24.3721C6.91191 25.3555 7.65484 26.1924 8.57278 26.7995C9.49073 27.4065 10.5517 27.7625 11.65 27.8321C14.981 27.8321 16.892 25.7831 16.892 22.2031V18.154C16.9147 17.9513 16.8685 17.7468 16.7607 17.5735C16.653 17.4002 16.49 17.2683 16.2981 17.199C16.1062 17.1297 15.8966 17.127 15.703 17.1914C15.5094 17.2558 15.3431 17.3836 15.231 17.5541C15.222 17.5631 15.222 17.5721 15.212 17.5821C15.202 17.5921 15.184 17.6191 15.175 17.6371C14.8566 18.2744 14.3558 18.8025 13.7362 19.1542C13.1167 19.5059 12.4064 19.6653 11.696 19.6121C10.7281 19.6256 9.79315 19.261 9.09 18.5958C8.38684 17.9306 7.97102 17.0172 7.931 16.05C7.93153 15.1055 8.30699 14.1998 8.97488 13.5319C9.64277 12.864 10.5485 12.4886 11.493 12.4881C12.6481 12.5152 13.7522 12.9686 14.593 13.761L20.517 19.7681C21.0916 20.3688 21.7972 20.8287 22.5787 21.112C23.3602 21.3954 24.1966 21.4944 25.0227 21.4015C25.8488 21.3086 26.6423 21.0263 27.3413 20.5764C28.0404 20.1266 28.6262 19.5214 29.053 18.8081C29.7855 17.5786 30 16.1086 29.6494 14.7211C29.2988 13.3335 28.4117 12.1419 27.183 11.4081Z" fill="white"/>
</svg>